<svg width="22" height="21" viewBox="0 0 22 21" fill="none" xmlns="http://www.w3.org/2000/svg">
<path d="M0.333496 21C0.333496 18.8783 1.17635 16.8434 2.67664 15.3431C4.17693 13.8429 6.21176 13 8.3335 13C10.4552 13 12.4901 13.8429 13.9904 15.3431C15.4906 16.8434 16.3335 18.8783 16.3335 21H14.3335C14.3335 19.4087 13.7014 17.8826 12.5761 16.7574C11.4509 15.6321 9.9248 15 8.3335 15C6.7422 15 5.21607 15.6321 4.09086 16.7574C2.96564 17.8826 2.3335 19.4087 2.3335 21H0.333496ZM8.3335 12C5.0185 12 2.3335 9.315 2.3335 6C2.3335 2.685 5.0185 0 8.3335 0C11.6485 0 14.3335 2.685 14.3335 6C14.3335 9.315 11.6485 12 8.3335 12ZM8.3335 10C10.5435 10 12.3335 8.21 12.3335 6C12.3335 3.79 10.5435 2 8.3335 2C6.1235 2 4.3335 3.79 4.3335 6C4.3335 8.21 6.1235 10 8.3335 10ZM16.6175 13.703C18.0228 14.3359 19.2155 15.3612 20.0521 16.6557C20.8887 17.9502 21.3337 19.4587 21.3335 21H19.3335C19.3337 19.844 19 18.7125 18.3726 17.7416C17.7451 16.7707 16.8506 16.0017 15.7965 15.527L16.6165 13.703H16.6175ZM15.9295 2.413C16.937 2.8283 17.7985 3.53354 18.4045 4.43923C19.0106 5.34492 19.3339 6.41024 19.3335 7.5C19.3339 8.87233 18.8212 10.1952 17.896 11.2088C16.9709 12.2224 15.7002 12.8535 14.3335 12.978V10.965C15.0744 10.8589 15.7618 10.518 16.2948 9.99246C16.8278 9.4669 17.1782 8.78432 17.2947 8.04493C17.4111 7.30555 17.2875 6.5483 16.9419 5.88435C16.5963 5.22041 16.0469 4.68475 15.3745 4.356L15.9295 2.413Z" fill="#FFA800"/>
</svg>
